<?xml version="1.0" standalone="no"?>
<!DOCTYPE svg PUBLIC "-//W3C//DTD SVG 20010904//EN"
 "http://www.w3.org/TR/2001/REC-SVG-20010904/DTD/svg10.dtd">
<svg version="1.0" xmlns="http://www.w3.org/2000/svg"
 width="780.000000pt" height="780.000000pt" viewBox="0 0 780.000000 780.000000"
 preserveAspectRatio="xMidYMid meet">
<metadata>
Created by potrace 1.14, written by Peter Selinger 2001-2017
</metadata>
<g transform="translate(0.000000,780.000000) scale(0.100000,-0.100000)"
fill="#000000" stroke="none">
<path d="M2149 7588 c-14 -6 -36 -27 -50 -46 l-24 -36 -1 -422 c0 -305 -4
-430 -13 -451 -6 -16 -26 -38 -44 -48 -30 -19 -56 -20 -461 -21 -321 0 -431
-3 -434 -12 -2 -7 -7 -10 -11 -7 -9 5 -64 -54 -70 -75 -2 -8 -4 -207 -5 -442
l-1 -428 -38 -37 -37 -38 -428 -1 c-474 0 -472 0 -512 -67 -19 -30 -20 -53
-20 -448 0 -270 4 -426 11 -445 6 -16 24 -40 41 -54 l31 -24 608 -1 607 0 33
-55 c18 -30 39 -61 46 -68 7 -7 13 -17 13 -22 0 -5 6 -15 12 -22 7 -8 18 -23
25 -33 17 -29 104 -164 178 -280 35 -54 63 -100 62 -101 -2 -3 -562 138 -607
153 -8 2 -16 4 -17 5 -2 0 -35 8 -75 19 -85 22 -88 22 -88 9 0 -10 45 -41 120
-80 25 -14 53 -31 63 -39 9 -8 17 -10 17 -5 0 5 4 4 8 -2 4 -6 34 -26 66 -43
33 -17 64 -35 70 -40 6 -4 36 -22 66 -38 30 -17 71 -39 90 -50 19 -11 98 -56
175 -100 77 -44 157 -90 178 -102 20 -11 53 -30 72 -41 19 -11 52 -29 73 -41
58 -33 65 -44 68 -106 2 -32 6 -114 9 -183 4 -69 8 -161 10 -205 2 -44 6 -129
10 -190 3 -60 8 -153 10 -205 3 -52 7 -142 11 -200 3 -58 7 -141 9 -185 8
-165 14 -293 20 -395 3 -58 8 -141 10 -185 17 -373 22 -439 29 -462 6 -18 23
-27 96 -53 19 -6 44 -16 55 -21 11 -4 58 -22 105 -39 142 -53 194 -72 215 -81
11 -5 83 -31 160 -59 77 -28 148 -56 159 -61 10 -6 26 -12 35 -14 16 -3 250
-89 286 -105 32 -14 669 -251 680 -253 6 -1 12 -4 15 -7 4 -4 118 -47 145 -54
6 -2 17 -6 25 -9 18 -7 281 -105 470 -175 74 -28 145 -53 156 -56 15 -5 39 5
82 34 34 22 66 40 72 40 5 0 10 4 10 8 0 5 12 15 28 23 15 8 43 24 62 37 53
34 46 30 335 213 149 94 317 201 375 237 58 36 107 69 108 74 2 4 10 8 18 8 8
0 14 5 14 10 0 6 3 9 8 8 4 -1 46 23 93 54 48 31 97 62 110 69 13 6 26 15 29
19 3 3 34 24 70 45 36 22 70 43 75 48 6 4 102 66 214 137 112 71 213 138 225
149 15 16 21 35 22 78 2 56 9 195 20 378 3 50 4 101 4 115 -2 28 -2 27 4 95 2
27 7 113 11 190 4 77 8 169 10 205 2 36 6 117 9 180 3 63 8 156 11 205 3 50 7
137 10 195 4 101 11 233 21 425 3 50 5 99 5 110 0 25 23 62 64 100 34 32 144
130 186 165 13 12 53 47 88 78 86 77 97 87 160 140 30 26 59 52 66 59 7 6 34
31 61 54 45 38 143 125 214 189 16 14 59 52 96 85 38 33 79 70 92 82 12 13 27
23 31 23 10 0 24 31 17 37 -2 3 -34 -9 -71 -26 -36 -17 -71 -31 -76 -31 -5 0
-17 -4 -27 -9 -40 -23 -122 -60 -122 -56 0 5 -124 -50 -165 -72 -16 -10 -32
-17 -35 -16 -6 0 -18 -5 -115 -46 -74 -31 -87 -32 -64 -4 8 10 19 28 26 40 7
11 67 112 133 223 67 111 118 206 113 210 -4 5 -24 10 -44 13 -20 2 -41 7 -45
10 -8 4 -56 12 -144 22 -14 2 -25 4 -25 5 0 3 -37 9 -95 16 -30 3 -59 9 -64
12 -5 3 -23 6 -40 8 -17 1 -44 5 -61 9 -16 3 -43 8 -60 10 -89 14 -91 15 -99
65 -4 30 -13 70 -41 196 -3 11 -19 63 -36 115 -17 52 -32 99 -33 104 -2 6 -8
21 -14 35 -6 14 -28 66 -48 115 -46 110 -127 267 -207 399 -65 109 -205 309
-218 314 -5 2 -9 8 -9 13 0 8 -8 20 -54 72 -10 12 -37 44 -60 71 -98 116 -312
332 -403 406 -82 67 -129 106 -133 110 -20 20 -119 90 -128 90 -7 0 -12 4 -12
9 0 9 -187 132 -290 191 -104 59 -355 180 -373 180 -4 0 -26 9 -50 19 -38 17
-74 32 -87 36 -3 1 -36 11 -75 23 -94 29 -283 74 -320 77 -17 1 -45 6 -63 9
-43 10 -110 16 -222 20 -107 4 -148 -8 -184 -57 l-21 -28 0 -1289 c0 -981 -3
-1286 -12 -1279 -6 6 -31 40 -55 77 -23 37 -46 69 -50 70 -5 2 -8 8 -8 12 0
11 -166 258 -190 284 -17 17 -21 17 -71 3 -30 -9 -65 -18 -79 -21 -14 -2 -32
-7 -41 -11 -15 -5 -16 88 -16 1067 0 590 -4 1084 -8 1098 -9 29 -39 58 -73 71
-33 13 -850 10 -883 -3z m2125 -3109 c3 -2 -26 -50 -65 -104 -65 -94 -96 -150
-91 -167 1 -5 -5 -8 -14 -8 -8 0 -12 5 -9 10 6 10 -137 236 -159 251 -25 19
18 25 168 24 90 0 167 -3 170 -6z"/>
<path d="M684 3198 c-3 -5 -5 -106 -4 -226 1 -275 2 -254 -4 -277 -5 -19 -13
-20 -266 -19 l-261 1 3 -111 3 -111 260 0 260 0 2 -70 c2 -39 4 -160 5 -270 3
-161 6 -199 16 -197 8 1 56 3 108 3 52 0 95 3 95 7 1 4 3 122 4 262 1 140 3
257 4 260 0 3 118 5 261 5 171 -1 261 3 263 10 2 9 1 171 -2 201 -1 7 -84 10
-257 10 -160 -1 -258 3 -262 9 -4 6 -7 120 -8 255 -1 135 -2 250 -3 256 -1 12
-210 14 -217 2z"/>
</g>
</svg>
